# xmcd
#
# Track frame offsets: 
#        150
#        14542
#        29635
#        44390
#        59912
#        71637
#        87285
#        104455
#        116765
#        127695
#        138432
#        151055
#        162895
#        172447
#        184002
#        196477
#        208595
#        221262
#        234955
#        247467
#        258160
#        268997
#
# Disc length: 3771 seconds
#
# Revision: 0
# Processed by: cddbd v1.5.1PL0 Copyright (c) Steve Scherf et al.
# Submitted via: ExactAudioCopy v0.95a5
#
DISCID=4f0eb916
DTITLE=Various Artist - Meat And Gravy - The Best Of Cadillac
DYEAR=1997
DGENRE=Blues
TTITLE0=Homesick James - My Baby's Gone
TTITLE1=Homesick James - My Kind Of Woman
TTITLE2=Homesick James - Homesick Sunnyland Special
TTITLE3=Sunnyland Slim - Little Girl
TTITLE4=Sunnyland Slim - She Got That Jive
TTITLE5=Sunnyland Slim - I Done You Wrong
TTITLE6=Sunnyland Slim - Too Late To Pray
TTITLE7=Sunnyland Slim - House Rock
TTITLE8=L.C. McKinley - Sharpest Man In Town
TTITLE9=Earl Hooker - Dynamite
TTITLE10=Bobby Saxton - Trying To Make A Living
TTITLE11=Eddie Boyd - I'm Coming Home
TTITLE12=Eddie Boyd - Thank You Baby
TTITLE13=Eddie Boyd - Blue Monday Blue
TTITLE14=Eddie Boyd - The Blues Is Here To Stay
TTITLE15=Eddie Boyd - Come Home
TTITLE16=Eddie Boyd - You Got To Reap
TTITLE17=Eddie Boyd - All The Way
TTITLE18=Eddie Boyd - Where You Belong
TTITLE19=Little Mac - Don't Come Back
TTITLE20=Little Mac - Times Are Getting Tougher
TTITLE21=Little Mac - I'm Tore Down
EXTD=
EXTT0=
EXTT1=
EXTT2=
EXTT3=
EXTT4=
EXTT5=
EXTT6=
EXTT7=
EXTT8=
EXTT9=
EXTT10=
EXTT11=
EXTT12=
EXTT13=
EXTT14=
EXTT15=
EXTT16=
EXTT17=
EXTT18=
EXTT19=
EXTT20=
EXTT21=
PLAYORDER=
